Info............

Format                           : MPEG-4
Format profile                   : Base Media
Codec ID                         : isom
File size                        : 3.93 MiB
Duration                         : 3mn 8s
Overall bit rate                 : 175 Kbps

Video
ID                               : 1
Format                           : MPEG-4 Visual
Format profile                   : Simple@L3
Format settings, BVOP            : No
Format settings, QPel            : No
Format settings, GMC             : No warppoints
Format settings, Matrix          : Default (H.263)
Codec ID                         : 20
Duration                         : 3mn 7s
Bit rate mode                    : Variable
Bit rate                         : 96.8 Kbps
Width                            : 176 pixels
Height                           : 144 pixels
Display aspect ratio             : 4:3
Original display aspect ratio    : 1.222
Frame rate mode                  : Constant
Frame rate                       : 5.000 fps
Color space                      : YUV
Chroma subsampling               : 4:2:0
Bit depth                        : 8 bits
Scan type                        : Progressive
Compression mode                 : Lossy
Bits/(Pixel*Frame)               : 0.764
Stream size                      : 2.16 MiB (55%)

Audio
ID                               : 2
Format                           : AAC
Format/Info                      : Advanced Audio Codec
Format profile                   : LC
Codec ID                         : 40
Duration                         : 3mn 8s
Bit rate mode                    : Variable
Bit rate                         : 75.9 Kbps
Channel(s)                       : 1 channel
Channel positions                : Front: C
Sampling rate                    : 44.1 KHz
Compression mode                 : Lossy
Stream size                      : 1.70 MiB (43%)





Screens...
 
http://picturestack.com/337/509/duzpoornimazz7.jpg